<?xml version="1.0" encoding="iso-8859-1"?>
<!-- Generator: Adobe Illustrator 16.0.0, SVG Export Plug-In . SVG Version: 6.00 Build 0)  -->
<!DOCTYPE svg PUBLIC "-//W3C//DTD SVG 1.1//EN" "http://www.w3.org/Graphics/SVG/1.1/DTD/svg11.dtd">
<svg version="1.1" id="Capa_1" xmlns="http://www.w3.org/2000/svg" xmlns:xlink="http://www.w3.org/1999/xlink" x="0px" y="0px"
	 width="48.341px" height="48.341px" viewBox="0 0 48.341 48.341" style="enable-background:new 0 0 48.341 48.341;"
	 xml:space="preserve">
<g>
	<path d="M44.689,35.794c-0.859-0.286-0.967-0.251-1.361-1.575c-0.394-1.326,0.609-2.615,0.967-3.009
		c0.358-0.396,0.467-0.753,0.467-1.612c0-0.858-1.54-3.867-4.441-10.744c-2.901-6.877-4.907-11.211-6.519-14.793
		c-1.611-3.581-1.791-3.652-3.367-3.939c-1.576-0.286-2.865-0.035-4.514,0.395c-1.648,0.43-4.728,1.576-6.984,2.436
		C16.68,3.812,13.564,5.03,12.92,5.424c-0.645,0.395-1.97,1.218-3.94,2.006c-1.97,0.788-3.331,1.647-4.513,2.614
		C3.285,11.012,2.82,15.13,2.748,16.85c-0.072,1.719,0.859,4.047,0.859,4.047c0.716,1.755,2.364,4.621,3.797,7.02
		c1.433,2.399,2.256,4.084,4.333,8.131c2.077,4.048,5.552,10.709,6.59,11.819c1.038,1.109,3.939,0.035,6.733-0.824
		c2.793-0.859,5.229-2.077,6.339-2.507c1.11-0.431,2.758-0.896,6.304-2.759c3.546-1.861,7.091-3.688,7.629-4.44
		C45.871,36.582,45.55,36.08,44.689,35.794z M5.256,20.214c-0.323-0.358-0.967-2.077-0.788-4.118
		c0.179-2.042,0.465-3.582,0.752-3.653c0.155-0.039,0.716,1.683,1.075,2.543c0.358,0.859,0.573,1.038,0.286,1.36
		c-0.286,0.322-0.931,1.827-1.11,2.65C5.292,19.82,5.578,20.572,5.256,20.214z M8.551,24.834c-0.107,0.932,0,2.078-0.251,1.898
		c-0.25-0.18-1.11-1.935-1.396-2.363c-0.286-0.429-0.43-1.146-0.287-1.361c0.143-0.215,0.43,0.107,0.573,0.394
		c0.143,0.287,0.824,0.896,1.361-0.107c0.537-1.003,0.322-1.79-0.072-2.112c-0.394-0.322-1.181-0.074-1.504,0.213
		c0,0,0-0.86,0.358-1.791c0.358-0.932,0.501-1.361,0.716-0.932c0.215,0.429,1.504,2.687,1.54,3.045
		c0.036,0.357,0.036,0.501-0.179,0.68C9.196,22.578,8.659,23.903,8.551,24.834z M17.469,40.986c-0.286,0.431-0.143,1.111-0.25,1.541
		c-0.108,0.43-0.251-0.071-0.609-0.859c-0.358-0.788-2.113-3.51-3.51-6.018s-2.794-5.157-3.295-6.088
		c-0.501-0.933-0.394-1.326-0.358-1.756c0.036-0.431,0.322-2.687,0.465-3.402c0.144-0.716,0.409-0.825,0.501-0.716
		c0.394,0.466,1.576,2.65,2.543,4.798c0.967,2.15,4.37,10.102,4.799,11.031C18.185,40.45,17.756,40.559,17.469,40.986z
		 M35.95,40.809c-4.047,1.862-6.732,3.224-9.885,4.405c-3.152,1.183-5.945,2.472-6.16,1.038c-0.215-1.432-0.358-3.617-0.358-3.617
		c0-0.572-0.036-1.898,1.002-2.471c1.039-0.573,6.447-2.83,10.458-4.227c4.011-1.397,6.59-2.258,8.059-2.83
		c1.468-0.572,2.256-0.896,2.328-0.717c0.072,0.18-0.43,0.752-1.11,1.039c-0.681,0.286-10.888,4.44-11.891,4.906
		c-1.002,0.466,0.144,0.251,0.502,0.071c0.357-0.179,6.339-2.292,8.596-3.188c2.256-0.895,4.083-1.504,4.154-1.324
		c0.072,0.18-2.865,1.324-4.907,2.436s-6.053,3.188-6.481,3.331c-0.431,0.144-0.788,0.287-0.646,0.358
		c0.144,0.07,2.364-0.859,3.797-1.47c1.434-0.608,4.871-2.292,6.018-2.722c1.146-0.43,1.934-0.609,2.327-0.502
		c0.395,0.107,0.395,0.609-0.357,0.896c-0.752,0.286-4.155,2.185-7.271,3.366c-3.115,1.183-4.262,1.647-4.083,1.79
		c0.18,0.145,2.83-0.967,4.119-1.432c1.29-0.467,4.405-2.078,6.089-2.615s2.472-0.645,2.542-0.43
		C42.863,37.119,39.997,38.946,35.95,40.809z M42.721,30.1c-0.717,0.357-6.447,2.186-11.533,4.119s-8.847,3.295-9.742,3.797
		c-0.896,0.502-2.256,1.575-3.08-0.252c-0.824-1.826-3.367-8.666-4.656-10.888c-1.289-2.221-2.937-5.479-4.154-8.095
		c-1.218-2.614-1.719-4.19-1.719-4.19c-0.501-0.931-1.755-3.474-1.325-3.868c0.43-0.394,4.907-2.829,8.059-4.262
		c3.152-1.433,6.196-2.615,9.169-3.582c2.973-0.967,4.871-1.253,5.802-1.253c0.932,0,1.433-0.323,3.044,3.546
		c1.612,3.867,5.408,11.891,7.45,16.726C42.075,26.732,43.437,29.741,42.721,30.1z M32.655,6.998
		c-0.859-1.719-2.077-2.614-2.865-2.543c-0.788,0.071-3.188,0.932-8.417,2.758c-5.229,1.826-7.987,2.901-10.136,3.939
		c-2.149,1.039-1.11,2.615-0.501,3.976c0.609,1.361,2.364,5.266,2.364,5.266s1.217,2.686,2.113,4.584
		c0.896,1.897,3.438,0.144,9.384-2.222c5.945-2.363,10.566-3.939,11.64-4.62c1.075-0.681-0.179-2.687-0.931-4.62
		C34.555,11.582,33.516,8.717,32.655,6.998z M34.482,17.385c-1.218,0.716-3.904,1.433-10.028,3.797
		c-6.125,2.363-6.805,2.507-7.307,2.686c-0.501,0.18-0.859,0.107-1.289-0.752c-0.43-0.859-3.116-6.555-3.116-6.555
		c-0.322-0.823-1.468-3.259-0.931-3.51c0.537-0.25,3.295-1.755,6.519-2.973c3.223-1.218,7.235-2.399,8.561-2.901
		c1.326-0.501,2.543-1.325,3.438-0.823c0.896,0.501,1.612,3.08,3.009,6.053C34.732,15.379,35.7,16.668,34.482,17.385z
		 M17.505,15.057c-0.251-0.358-0.752,0-1.29,0.179c-0.537,0.18-0.716,0.108-0.931-0.25c-0.148-0.248-0.322-0.788,0.107-1.075
		c0.43-0.286,1.253-0.501,1.182-0.859c-0.071-0.358-0.859-0.573-1.611-0.215c-0.752,0.358-1.29,1.576-0.86,2.687
		s1.647,1.218,2.507,0.859C17.469,16.023,17.756,15.415,17.505,15.057z M29.074,11.94c0.251-0.179,0.466-0.251,0.466-0.896
		c0,0,0.25-0.179,0.717,0c0.465,0.18,1.396,0.215,1.288-0.537c-0.106-0.752-0.321-0.752-1.003-0.752
		c-0.68,0-0.788-0.107-0.608-0.395c0.179-0.286,0.645-0.787,0.215-1.289c-0.43-0.501-0.859,0.502-1.11,0.752
		c-0.251,0.251-0.572,0.251-0.645,0.036c-0.071-0.215-0.036-0.788-0.859-0.573c-0.296,0.077-0.43,0.502,0.036,1.325
		c0.466,0.824,0.788,1.898,0.824,2.113C28.43,11.94,28.823,12.119,29.074,11.94z M19.797,14.985c0.681,0,1.934-0.395,2.328-1.397
		s0.501-2.614-1.719-3.008c-0.446-0.08-1.934,1.396-1.97,2.292S19.117,14.985,19.797,14.985z M20.549,11.977
		c0.86,0,0.86,0.537,0.86,0.716c0,0.18-0.322,0.646-0.896,0.968c-0.573,0.322-0.967-0.144-0.967-0.537
		C19.547,12.728,20.084,11.977,20.549,11.977z M26.71,11.475c-0.035-1.396-0.357-1.897-1.719-2.005
		c-0.718-0.057-2.006,1.182-1.862,2.399c0.143,1.218,0.967,2.006,1.683,1.719C25.528,13.302,26.745,12.872,26.71,11.475z
		 M25.887,11.439c-0.107,0.286-0.358,0.788-0.861,0.931c-0.501,0.144-0.895-0.215-0.895-0.716c0-0.502,0.603-1.074,1.039-1.074
		C25.814,10.58,25.994,11.152,25.887,11.439z M19.654,18.746c-0.43-0.358-0.681-1.505-2.256-1.11
		c-0.858,0.214-1.934,0.896-1.576,1.575c0.358,0.681,1.075,2.186,1.325,2.687c0.251,0.501,0.322,1.11,1.325,0.788
		s2.507-1.469,2.292-2.65C20.549,18.853,20.084,19.103,19.654,18.746z M17.147,19.391c-0.215-0.502,0.177-0.693,0.43-0.681
		c0.716,0.036,1.075,0.537,0.573,1.038C17.648,20.25,17.362,19.892,17.147,19.391z M19.26,21.217
		c-0.43,0.358-1.003,0.824-1.146,0.466c-0.144-0.358,0.078-0.757,0.608-1.11c0.645-0.43,0.752-0.717,1.075-0.43
		C20.12,20.429,19.69,20.859,19.26,21.217z M22.268,16.848c-0.746,0.187-1.719,1.146-1.361,2.436
		c0.358,1.289,1.504,1.647,2.722,0.645c1.217-1.003,1.433-1.755,0.752-2.579C23.701,16.525,23.271,16.597,22.268,16.848z
		 M23.093,19.176c-0.86,0.608-1.003-0.144-1.075-0.645c-0.072-0.502,0.542-0.936,0.931-0.86
		C24.059,17.887,23.952,18.566,23.093,19.176z M26.566,15.2c-0.607,0.043-1.253,0.716-1.432,1.683
		c-0.179,0.968,1.002,1.898,1.826,1.72c0.824-0.178,1.219-1.146,1.146-2.077C28.035,15.594,27.068,15.164,26.566,15.2z
		 M27.247,16.955c-0.07,0.286-0.25,0.608-0.537,0.608c-0.286,0-0.501-0.286-0.501-0.573c0-0.286,0.144-0.572,0.466-0.572
		C27.104,16.418,27.319,16.668,27.247,16.955z M32.44,16.06c-1.11-0.43-1.289-0.681-1.146-1.039c0.144-0.357,1.253-0.967,0.717-1.54
		c-0.537-0.572-1.074,0-1.361,0.537c-0.286,0.538-0.358,1.11-0.537,0.86c-0.179-0.251-0.215-1.361-1.11-1.003
		c-0.357,0.143-0.286,0.645,0,1.647c0.286,1.003,0.788,1.862,1.038,2.148c0.251,0.287,0.467,0.538,0.788,0.144
		c0.323-0.394-0.036-0.681,0.036-1.003s0.573,0.071,0.967,0.287c0.395,0.215,1.074,0.608,1.397,0.179
		C33.552,16.848,33.552,16.489,32.44,16.06z"/>
</g>
<g>
</g>
<g>
</g>
<g>
</g>
<g>
</g>
<g>
</g>
<g>
</g>
<g>
</g>
<g>
</g>
<g>
</g>
<g>
</g>
<g>
</g>
<g>
</g>
<g>
</g>
<g>
</g>
<g>
</g>
</svg>
