<svg width="24" height="40" viewBox="0 0 24 40" fill="none" xmlns="http://www.w3.org/2000/svg">
<path d="M9 30H15C20 30 22 28 22 23V17C22 12 20 10 15 10H9C4 10 2 12 2 17V23C2 28 4 30 9 30Z" stroke="#292D32" stroke-width="1.5" stroke-linecap="round" stroke-linejoin="round"/>
<path d="M9 18C10.1046 18 11 17.1046 11 16C11 14.8954 10.1046 14 9 14C7.89543 14 7 14.8954 7 16C7 17.1046 7.89543 18 9 18Z" stroke="#292D32" stroke-width="1.5" stroke-linecap="round" stroke-linejoin="round"/>
<path d="M2.66992 26.9501L7.59992 23.6401C8.38992 23.1101 9.52992 23.1701 10.2399 23.7801L10.5699 24.0701C11.3499 24.7401 12.6099 24.7401 13.3899 24.0701L17.5499 20.5001C18.3299 19.8301 19.5899 19.8301 20.3699 20.5001L21.9999 21.9001" stroke="#292D32" stroke-width="1.5" stroke-linecap="round" stroke-linejoin="round"/>
</svg>
