<svg width="280" height="240" viewBox="0 0 280 240" fill="none" xmlns="http://www.w3.org/2000/svg">
  <!-- Left page -->
  <rect x="20" y="50" width="110" height="140" rx="10" stroke="#292D32" stroke-width="3" fill="#292D32" fill-opacity="0.04" transform="rotate(-6 75 120)"/>

  <!-- Right page -->
  <rect x="150" y="50" width="110" height="140" rx="10" stroke="#292D32" stroke-width="3" fill="#292D32" fill-opacity="0.04" transform="rotate(6 205 120)"/>

  <!-- Left page lines -->
  <line x1="45" y1="90" x2="105" y2="85" stroke="#292D32" stroke-width="2" stroke-linecap="round" opacity="0.25" transform="rotate(-6 75 120)"/>
  <line x1="45" y1="110" x2="105" y2="105" stroke="#292D32" stroke-width="2" stroke-linecap="round" opacity="0.25" transform="rotate(-6 75 120)"/>
  <line x1="45" y1="130" x2="95" y2="125" stroke="#292D32" stroke-width="2" stroke-linecap="round" opacity="0.25" transform="rotate(-6 75 120)"/>

  <!-- Right page lines -->
  <line x1="175" y1="85" x2="235" y2="90" stroke="#292D32" stroke-width="2" stroke-linecap="round" opacity="0.25" transform="rotate(6 205 120)"/>
  <line x1="175" y1="105" x2="235" y2="110" stroke="#292D32" stroke-width="2" stroke-linecap="round" opacity="0.25" transform="rotate(6 205 120)"/>
  <line x1="175" y1="125" x2="225" y2="130" stroke="#292D32" stroke-width="2" stroke-linecap="round" opacity="0.25" transform="rotate(6 205 120)"/>

  <!-- Center circle -->
  <circle cx="140" cy="120" r="40" stroke="#292D32" stroke-width="3" fill="white"/>

  <!-- Fork (left) -->
  <line x1="128" y1="100" x2="128" y2="142" stroke="#292D32" stroke-width="2.5" stroke-linecap="round"/>
  <line x1="122" y1="100" x2="122" y2="115" stroke="#292D32" stroke-width="2" stroke-linecap="round"/>
  <line x1="128" y1="100" x2="128" y2="115" stroke="#292D32" stroke-width="2" stroke-linecap="round"/>
  <line x1="134" y1="100" x2="134" y2="115" stroke="#292D32" stroke-width="2" stroke-linecap="round"/>
  <path d="M122 115 Q128 122 134 115" stroke="#292D32" stroke-width="2" fill="none"/>

  <!-- Knife (right) -->
  <line x1="152" y1="100" x2="152" y2="142" stroke="#292D32" stroke-width="2.5" stroke-linecap="round"/>
  <path d="M152 100 Q160 108 158 120 L152 120" stroke="#292D32" stroke-width="2" fill="#292D32" fill-opacity="0.1"/>
</svg>
