<svg width="280" height="240" viewBox="0 0 280 240" fill="none" xmlns="http://www.w3.org/2000/svg">
  <defs>
    <filter id="shadow">
      <feDropShadow dx="0" dy="6" stdDeviation="8" floodOpacity="0.25"/>
    </filter>
  </defs>
  
  <!-- Left page (Pink) -->
  <rect x="20" y="50" width="110" height="140" rx="10" fill="#FB7185" transform="rotate(-6 75 120)" filter="url(#shadow)"/>
  
  <!-- Right page (Purple) -->
  <rect x="150" y="50" width="110" height="140" rx="10" fill="#C084FC" transform="rotate(6 205 120)" filter="url(#shadow)"/>
  
  <!-- Center white circle -->
  <circle cx="140" cy="120" r="45" fill="white" filter="url(#shadow)"/>
  
  <!-- Cutlery icon - scaled and centered in white circle -->
  <g transform="translate(140, 120) scale(0.11) translate(-250, -250)">
    <g transform="matrix(0.64 0 0 0.64 250 250)">
      <g>
        <g transform="matrix(1 0 0 1 -122.56 -0.08)" id="path_0">
          <path style="fill: #6366F1;" transform="translate(-389.51, -510.12)" d="M 302.818 121.606 C 334.298 119.04599999999999 328.61199999999997 159.365 328.616 179.192 L 328.604 258.24 C 328.59999999999997 271.802 328.34 285.356 328.89599999999996 299.00800000000004 C 329.36199999999997 319.92400000000004 360.794 323.00800000000004 365.30799999999994 303.63000000000005 C 367.23999999999995 295.34200000000004 366.2099999999999 278.72600000000006 366.21399999999994 269.89000000000004 L 366.27599999999995 180.94300000000004 C 366.26599999999996 167.43000000000004 365.40999999999997 152.07600000000005 366.92199999999997 139.01200000000006 C 369.07399999999996 118.36000000000006 402.03999999999996 115.82700000000006 409.87199999999996 132.07900000000006 C 414.37399999999997 141.42100000000008 412.75999999999993 166.49100000000007 412.75999999999993 177.61000000000007 L 412.75999999999993 258.6940000000001 C 412.76399999999995 272.1600000000001 412.46599999999995 285.4600000000001 412.97999999999996 299.02600000000007 C 413.80999999999995 321.00800000000004 446.00399999999996 321.29800000000006 449.68399999999997 302.6140000000001 C 451.40599999999995 293.8740000000001 450.554 276.8760000000001 450.554 267.4280000000001 L 450.5 156.82800000000012 C 450.5 152.2010000000001 450.426 147.6050000000001 450.71 142.9980000000001 C 451.94599999999997 123.0500000000001 476.07399999999996 114.37100000000011 490.138 128.3920000000001 C 500.10999999999996 138.33400000000012 497.03 158.1820000000001 497.03 171.67300000000012 L 497.054 315.5300000000001 C 497.09799999999996 367.2960000000001 500.14 413.7980000000001 448.87199999999996 445.57400000000007 C 441.29799999999994 450.2700000000001 433.88199999999995 453.39000000000004 427.14799999999997 457.59400000000005 L 426.48199999999997 458.0160000000001 C 425.27399999999994 464.61800000000005 425.7 466.2800000000001 426.48199999999997 473.03800000000007 C 425.332 479.13000000000005 426.316 494.74000000000007 426.41799999999995 501.75000000000006 L 429.5919999999999 723.498 C 429.72599999999994 769.618 433.4599999999999 817.0840000000001 432.4119999999999 863.4540000000001 C 431.4819999999999 904.6560000000001 358.4999999999999 915.474 348.93799999999993 865.0360000000001 C 347.51199999999994 846.884 348.50199999999995 827.798 349.02599999999995 809.586 L 355.57399999999996 476.618 C 355.638 470.924 356.126 463.468 355.48799999999994 458.016 C 320.5419999999999 444.428 292.1139999999999 415.034 284.352 377.51 C 281.26599999999996 362.602 282.258 339.12399999999997 282.258 323.166 L 282.248 178.369 C 282.238 156.057 275.644 126.939 302.818 121.606"/>
        </g>
        <g transform="matrix(1 0 0 1 -122.44 -218.44)" id="path_1">
          <path style="fill: #8B5CF6;" transform="translate(-389.63, -291.76)" d="M 304.41 136.133 C 319.05400000000003 137.756 313.324 172.47400000000002 313.312 185.26500000000001 L 313.28200000000004 258.544 C 313.28200000000004 271.758 313.22200000000004 284.914 313.468 298.27599999999995 C 314.272 341.662 379.826 340.46199999999993 381.16 299.59999999999997 C 381.65400000000005 284.47799999999995 381.46200000000005 269.22799999999995 381.464 254.05599999999998 L 381.448 169.61999999999998 C 381.44 160.60499999999996 377.164 135.68599999999998 390.01599999999996 135.45399999999998 C 399.93199999999996 135.27499999999998 397.74199999999996 151.31799999999998 397.70199999999994 158.153 L 397.67199999999997 269.374 C 397.65599999999995 285.44 394.46799999999996 308.396 406.518 320.42600000000004 C 430.142 344.01000000000005 465.984 328.43000000000006 465.51599999999996 290.20200000000006 L 465.49999999999994 190.25000000000006 L 465.46399999999994 161.91200000000006 C 465.44999999999993 154.22700000000006 462.65199999999993 134.98100000000005 474.64399999999995 136.12200000000007 C 481.73199999999997 136.79600000000008 481.7219999999999 142.63400000000007 481.9719999999999 148.44600000000008 L 482 328.302 C 482.016 350.716 484.086 371.04 475.088 392.15000000000003 C 442.384 468.85600000000005 333.05 465.336 304.016 389.65000000000003 C 295.57800000000003 368.43000000000006 297.166 348.79400000000004 297.172 326.67800000000005 L 297.196 148.59300000000005 C 297.24 142.62300000000005 297.84000000000003 137.54300000000003 304.41 136.13300000000004"/>
        </g>
        <g transform="matrix(1 0 0 1 -121.38 203.68)" id="path_2">
          <path style="fill: #6366F1;" transform="translate(-390.69, -713.89)" d="M 369.508 543.464 L 412.746 543.464 C 410.28799999999995 557.33 412.904 601.908 413.236 617.2180000000001 L 416.976 834.69 C 417.398 852.0880000000001 421.334 866.874 406.384 879.2840000000001 C 398.454 884.166 389.702 886.0400000000001 380.7 882.4080000000001 C 359.09999999999997 873.6560000000002 364.226 852.1680000000001 364.01599999999996 833.8420000000001 L 368.53 604.8720000000001 C 368.88199999999995 584.2040000000001 369.534 564.166 369.508 543.464"/>
        </g>
        <g transform="matrix(1 0 0 1 -121.12 -14.82)" id="path_3">
          <path style="fill: #8B5CF6;" transform="translate(-390.95, -495.39)" d="M 409.322 462.974 L 409.986 462.698 C 411.222 464.484 410.73 521.8059999999999 410.734 528.232 L 372.876 528.232 L 371.496 528.12 C 370.632 527.218 371.33799999999997 515.282 371.346 512.704 L 371.354 462.97399999999993 C 382.116 462.3059999999999 398.522 462.48999999999995 409.322 462.97399999999993"/>
        </g>
        <g transform="matrix(1 0 0 1 156.23 0)" id="path_4">
          <path style="fill: #EC4899;" transform="translate(-668.3, -510.21)" d="M 607.174 121.606 C 613.39 120.29499999999999 618.744 123.32799999999999 624.1519999999999 126.226 C 761.8259999999999 199.994 782.4279999999999 402.896 670.496 508.318 C 669.808 554.946 671.914 601.414 672.648 647.998 L 673.506 745.498 C 674.0219999999999 776.984 677.0459999999999 810.6460000000001 674.9499999999999 841.9920000000001 C 684.8699999999999 911.9300000000001 607.0279999999999 913.0820000000001 595.9899999999999 870.1540000000001 C 592.8319999999999 857.8740000000001 594.3319999999999 839.6760000000002 594.5539999999999 826.5820000000001 L 600.2819999999998 608.4700000000001 C 600.4959999999999 595.6060000000001 599.7039999999998 581.6200000000001 599.8399999999998 568.4060000000002 L 600.2439999999998 182.3260000000002 C 600.2459999999998 168.85900000000018 594.3819999999998 125.03900000000019 607.1739999999998 121.6060000000002 M 692.7579999999998 460.36400000000015 C 756.1799999999998 364.9520000000001 731.9799999999998 209.51600000000013 631.4739999999998 147.86400000000015 C 628.2119999999999 145.86200000000014 617.5759999999998 138.43200000000016 614.7859999999998 139.95700000000014 L 614.9939999999998 142.36500000000012 C 627.7919999999998 152.8870000000001 646.2559999999999 176.32200000000012 656.0339999999998 190.5890000000001 C 701.0479999999998 256.2620000000001 718.0939999999998 345.4020000000001 701.0459999999998 423.3460000000001 C 700.1299999999998 427.5340000000001 691.7099999999998 458.3720000000001 692.7579999999998 460.36400000000015"/>
        </g>
        <g transform="matrix(1 0 0 1 149.02 -170.78)" id="path_5">
          <path style="fill: #EC4899;" transform="translate(-661.09, -339.43)" d="M 614.994 142.365 C 627.792 152.887 646.2560000000001 176.322 656.034 190.589 C 701.048 256.262 718.094 345.402 701.046 423.346 C 700.13 427.534 691.71 458.372 692.758 460.36400000000003 C 684.2280000000001 478.03600000000006 662.916 490.232 655.522 502.20000000000005 L 655.522 536.488 L 614.994 536.488 L 614.9920000000001 273.95200000000006 C 614.9920000000001 230.93200000000004 614.2060000000001 185.18700000000007 614.994 142.36500000000007"/>
        </g>
        <g transform="matrix(1 0 0 1 123.43 207.21)" id="path_6">
          <path style="fill: #EC4899;" transform="translate(-635.5, -717.41)" d="M 614.994 550.996 L 655.522 550.996 C 655.514 568.77 655.4620000000001 586.602 655.5600000000001 604.374 C 655.1220000000001 629.544 657.302 658.682 658.07 684.032 C 658.7860000000001 707.6840000000001 657.522 731.826 658.1400000000001 755.5260000000001 L 660.0980000000001 823.392 C 660.7260000000001 842.976 666.4100000000001 866.0920000000001 650.0020000000001 879.2840000000001 C 632.7900000000001 890.5000000000001 610.82 879.8660000000001 609.7120000000001 859.2000000000002 C 609.1360000000001 848.4560000000001 609.6400000000001 837.3000000000002 609.9340000000001 826.5180000000001 L 610.9820000000001 781.5620000000001 C 611.1880000000001 774.8200000000002 611.7840000000001 767.7380000000002 611.8900000000001 761.1000000000001 z"/>
        </g>
      </g>
    </g>
  </g>
</svg>
